Tussen 2006 en 2008 toerde Wertheim met zijn programma Micha Wertheim voor gevorderden. Het programma speelt zich af in een droom. In het eerste deel van de droom bekent Wertheim dat hij geen genie is. In het tweede deel van de droom ontsteekt Wertheim in een tirade tegen gehandicapten die volgens hem de westerse samenleving ontwrichten. Het laatste deel van de voorstelling spelt zich af na het applaus, als Wertheim het wakker worden heeft uitgesteld door op snooze te drukken

General
Format                           : AVI
Format/Info                      : Audio Video Interleave
File size                        : 727 MiB
Duration                         : 1h 38mn
Overall bit rate                 : 1 028 Kbps

Video
ID                               : 0
Format                           : MPEG-4 Visual
Format profile                   : Simple@L1
Format settings, BVOP            : No
Format settings, QPel            : No
Format settings, GMC             : No warppoints
Format settings, Matrix          : Default (H.263)
Codec ID                         : DX50
Codec ID/Hint                    : DivX 5
Duration                         : 1h 38mn
Bit rate                         : 797 Kbps
Width                            : 672 pixels
Height                           : 368 pixels
Display aspect ratio             : 16:9
Frame rate                       : 30.000 fps
Color space                      : YUV
Chroma subsampling               : 4:2:0
Bit depth                        : 8 bits
Scan type                        : Progressive
Bits/(Pixel*Frame)               : 0.107
Stream size                      : 564 MiB (78%)
Writing library                  : MasterSoft AV Encoder Core

Audio
ID                               : 1
Format                           : AC-3
Format/Info                      : Audio Coding 3
Mode extension                   : CM (complete main)
Codec ID                         : 2000
Duration                         : 1h 38mn
Bit rate mode                    : Constant
Bit rate                         : 224 Kbps
Channel(s)                       : 2 channels
Channel positions                : Front: L R
Sampling rate                    : 48.0 KHz
Bit depth                        : 16 bits
Stream size                      : 159 MiB (22%)
Alignment                        : Split accross interleaves
Interleave, duration             : 500 ms (15.00 video frames)
Interleave, preload duration     : 500 ms
